<?xml version="1.0" encoding="UTF-8" standalone="no"?>
<svg
   xmlns:dc="http://purl.org/dc/elements/1.1/"
   xmlns:cc="http://creativecommons.org/ns#"
   xmlns:rdf="http://www.w3.org/1999/02/22-rdf-syntax-ns#"
   xmlns:svg="http://www.w3.org/2000/svg"
   xmlns="http://www.w3.org/2000/svg"
   xml:space="preserve"
   enable-background="new 0 0 200 200"
   viewBox="0 0 200 200"
   y="0px"
   x="0px"
   id="Layer_1"
   version="1.1"><metadata
     id="metadata20"><rdf:RDF><cc:Work
         rdf:about=""><dc:format>image/svg+xml</dc:format><dc:type
           rdf:resource="http://purl.org/dc/dcmitype/StillImage" /></cc:Work></rdf:RDF></metadata><defs
     id="defs18" /><circle
     id="circle2"
     fill="#212954"
     r="77.8"
     cy="100"
     cx="100" /><g
     id="g13"
     transform="matrix(0.7,0,0,0.7,30,30)"><defs
       id="defs437979" /><linearGradient
       spreadMethod="pad"
       y2="0.30000001"
       x2="-0.1"
       y1="1.2"
       x1="0.30000001"
       id="3d_gradient2-logo-dacfcfb4-2fac-4dd5-82aa-5956cbf622a8"><stop
         id="stop437956"
         stop-opacity="1"
         stop-color="#ffffff"
         offset="0%" /><stop
         id="stop437958"
         stop-opacity="1"
         stop-color="#000000"
         offset="100%" /></linearGradient><linearGradient
       gradientTransform="rotate(-30)"
       spreadMethod="pad"
       y2="0.30000001"
       x2="-0.1"
       y1="1.2"
       x1="0.30000001"
       id="3d_gradient3-logo-dacfcfb4-2fac-4dd5-82aa-5956cbf622a8"><stop
         id="stop437961"
         stop-opacity="1"
         stop-color="#ffffff"
         offset="0%" /><stop
         id="stop437963"
         stop-opacity="1"
         stop-color="#cccccc"
         offset="50%" /><stop
         id="stop437965"
         stop-opacity="1"
         stop-color="#000000"
         offset="100%" /></linearGradient><path
       stroke-miterlimit="2"
       d="m 98.808508,159.99999 q -2.212766,0 -4.595744,-0.85107 -2.212766,-0.85106 -4.085107,-2.55319 -1.702127,-1.87234 -2.893617,-4.59574 -1.021276,-2.89362 -1.021276,-6.97873 v -33.87234 h 6.127659 v 33.02128 q 0,5.78723 2.212766,8.34043 2.212766,2.38297 4.765957,2.38297 h 1.361704 q 2.7234,0 4.93617,-2.38297 2.21276,-2.5532 2.21276,-8.34043 V 39.999991 h 5.95745 V 145.02126 q 0,8 -4.08511,11.57447 -3.91489,3.40426 -8.51063,3.40426 z"
       style="font-style:normal;font-weight:300;font-size:72px;line-height:1;font-family:Morganite;font-variant-ligatures:none;text-align:center;text-anchor:middle;fill:#f9f6ec;stroke:#f9f6ec;stroke-width:0;stroke-linejoin:miter;stroke-miterlimit:2"
       id="path437984" /></g></svg>